# xmcd CD database file
#
# Track frame offsets:
#	150
#	26075
#	42888
#	69823
#	85043
#	102385
#	113895
#	128385
#	142998
#	164868
#	183928
#	202903
#	244110
#
# Disc length: 3421 seconds
#
# Revision: 1
# Processed by: cddbd v1.5.2PL0 Copyright (c) Steve Scherf et al.
# Submitted via: CDex 1.79
#
DISCID=a60d5b0d
DTITLE=Rufus Wainwright - Want Two
DYEAR=05
DGENRE=Blues
TTITLE0=Agnus Dei
TTITLE1=The One You Love
TTITLE2=Peach Trees
TTITLE3=Little Sister
TTITLE4=The Art Teacher
TTITLE5=Hometown Waltz
TTITLE6=This Love Affair
TTITLE7=Gay Messiah
TTITLE8=Memphis Skyline
TTITLE9=Waiting For A Dream
TTITLE10=Crumb By Crumb
TTITLE11=Old Whore's Diet
TTITLE12=Coeur De Parisienne - Reprise D'arletty
EXTD=YEAR: 05
EXTT0=
EXTT1=
EXTT2=
EXTT3=
EXTT4=
EXTT5=
EXTT6=
EXTT7=
EXTT8=
EXTT9=
EXTT10=
EXTT11=
EXTT12=
PLAYORDER=
